<?xml version="1.0" encoding="UTF-8" standalone="no"?>
<svg
   xmlns:dc="http://purl.org/dc/elements/1.1/"
   xmlns:cc="http://creativecommons.org/ns#"
   xmlns:rdf="http://www.w3.org/1999/02/22-rdf-syntax-ns#"
   xmlns:svg="http://www.w3.org/2000/svg"
   xmlns="http://www.w3.org/2000/svg"
   xmlns:sodipodi="http://sodipodi.sourceforge.net/DTD/sodipodi-0.dtd"
   xmlns:inkscape="http://www.inkscape.org/namespaces/inkscape"
   version="1.1"
   id="svg10"
   width="995"
   height="1059"
   viewBox="0 0 995 1059"
   sodipodi:docname="logo negro.svg"
   inkscape:version="1.0.1 (3bc2e813f5, 2020-09-07)">
  <metadata
     id="metadata16">
    <rdf:RDF>
      <cc:Work
         rdf:about="">
        <dc:format>image/svg+xml</dc:format>
        <dc:type
           rdf:resource="http://purl.org/dc/dcmitype/StillImage" />
        <dc:title></dc:title>
      </cc:Work>
    </rdf:RDF>
  </metadata>
  <defs
     id="defs14" />
  <sodipodi:namedview
     pagecolor="#ffffff"
     bordercolor="#666666"
     borderopacity="1"
     objecttolerance="10"
     gridtolerance="10"
     guidetolerance="10"
     inkscape:pageopacity="0"
     inkscape:pageshadow="2"
     inkscape:window-width="1600"
     inkscape:window-height="837"
     id="namedview12"
     showgrid="false"
     inkscape:zoom="1.4432169"
     inkscape:cx="419.32864"
     inkscape:cy="662.97875"
     inkscape:window-x="-8"
     inkscape:window-y="-8"
     inkscape:window-maximized="1"
     inkscape:current-layer="g18" />
  <g
     inkscape:groupmode="layer"
     inkscape:label="Image"
     id="g18">
    <path
       style="fill:#000000"
       d="m 483.95052,769.256 c -0.38077,-0.38077 -0.6923,-17.7082 -0.6923,-38.5054 0,-33.04602 -0.21173,-38.35144 -1.67949,-42.08333 -3.43861,-8.74292 -8.62526,-13.44194 -17.96414,-16.27523 -3.75522,-1.13929 -10.97843,-1.4774 -31.85637,-1.49119 -35.33476,-0.0233 -43.89902,-1.85163 -56.89078,-12.14502 -9.64468,-7.64149 -14.0815,-15.86113 -17.4667,-32.3588 -0.57073,-2.78144 -1.06207,-19.91244 -1.10734,-38.60839 -0.0686,-28.35279 0.14751,-33.79834 1.38223,-34.82307 1.11165,-0.92259 10.79595,-1.11746 40.27309,-0.81039 33.51492,0.34913 39.22428,0.47325 45.61506,2.2097 0.22908,0.0622 0.46495,0.10525 0.69444,0.17976 17.3012,5.61701 32.46609,16.83995 41.69119,24.9448 1.43911,1.26435 0.78607,1.09954 1.25,-3.38457 2.05841,-19.89574 11.55654,-42.42344 28.78575,-57.20784 7.31572,-6.27762 18.43022,-11.1001 27.6008,-13.01696 18.14465,-3.74319 30.64804,-3.57816 49.0645,-3.80726 l 47.30866,0.71831 0.57016,6.30295 c 0.31358,3.46662 0.48259,21.37796 0.37556,39.80296 -0.1828,31.47112 -0.33139,33.97568 -2.45347,41.35426 -2.69513,9.3711 -4.9771,14.08552 -10.78775,22.2868 -9.68534,13.6701 -26.46754,24.00803 -46.30084,28.52157 -2.53251,0.57633 -15.4392,1.338 -28.68154,1.69262 l -21.7497,0.76724 c -8.97073,0.94413 -14.73926,7.12268 -16.17332,16.87751 l -0.5,54.5 -0.5,54.5 -14.5577,0.27563 c -8.00674,0.15159 -14.86924,-0.0359 -15.25,-0.41666 z m 27.05081,-33.85897 c 0.62493,-79.68845 0.54982,-77.57051 2.9265,-82.5 2.42526,-5.03023 6.24332,-8.9712 11.03073,-11.38584 2.62742,-1.3252 6.83433,-1.61768 23.5,-1.63383 25.87877,-0.0251 36.0274,-1.70337 49.79966,-8.2354 9.80258,-4.64926 15.34209,-8.7792 22.62305,-16.86647 7.21328,-8.01209 11.59017,-15.95261 14.28383,-25.91357 2.34596,-8.67519 3.30051,-35.22791 2.34439,-65.21489 l -1.29542,-14.39442 -39.52587,6.81542 c -37.74819,6.50889 -41.31496,8.77485 -48.31519,10.53902 -9.85372,2.4833 -14.90267,6.64799 -23.38343,13.46169 -16.88946,13.56952 -32.92346,14.45767 -34.52783,35.08757 -0.63015,8.10283 -0.91912,9.07909 -2.77038,9.35938 -1.43767,0.21768 -3.20676,-1.05077 -5.81151,-4.16689 -6.33643,-7.58045 -17.38342,-14.98352 -28.62164,-19.18067 -14.90627,-5.56706 -16.88614,-5.7711 -56,-5.7711 h -36.5 l -0.26305,34.83067 c -0.26059,34.50376 -0.24002,34.90565 2.19033,42.81946 3.09906,10.0913 7.36401,16.75538 14.38196,22.47216 6.52188,5.31269 8.57095,6.43498 17.19076,9.41552 6.02331,2.08272 8.84679,2.29371 38.5,2.87698 30.72003,0.60425 32.20966,0.72332 37.24164,2.97687 6.03218,2.70147 11.26895,8.04619 14.21059,14.50348 1.94857,4.27737 2.04777,6.33062 2.04777,42.38333 0,20.83851 0.31352,38.20171 0.6967,38.5849 0.38319,0.38318 5.89569,0.57067 12.25,0.41666 l 11.5533,-0.28003 z"
       id="path24"
       sodipodi:nodetypes="ssssssssssssssscccssssssccccsssssssssscsssssssscsssssssssscs" />
    <path
       style="fill:#000000;stroke-width:0.979904"
       d="m 486.80127,765.47301 c -0.22417,-0.67368 -0.54839,-18.20171 -0.72047,-38.95117 l -0.31289,-37.72629 -2.8922,-5.25111 c -3.61091,-6.55597 -9.33026,-11.53214 -15.28797,-13.30139 -3.12648,-0.92846 -13.09025,-1.56374 -31.39973,-2.00199 -33.05412,-0.79118 -39.07294,-1.50737 -48.19425,-5.73467 -12.42585,-5.75881 -20.2903,-14.7035 -25.3118,-28.78857 -2.51043,-7.04161 -3.42085,-30.2524 -2.32891,-59.37438 l 0.72384,-19.30474 31.98479,0.008 c 35.25161,0.009 45.35166,0.78146 55.53626,4.24823 13.26412,4.51501 28.15113,13.72244 32.84481,20.31412 2.52639,3.54798 5.67234,5.37394 6.98948,4.0568 0.52332,-0.52332 1.3489,-4.11646 1.83461,-7.98476 1.58709,-12.63954 4.73552,-16.75043 20.11419,-26.26296 5.34385,-3.30546 13.90518,-9.1288 19.02518,-12.94075 9.75192,-7.26052 15.15949,-9.54524 32.82677,-13.86941 10.10734,-2.47384 73.23096,-13.72329 73.8018,-13.15244 2.05327,2.05327 2.78085,44.27493 1.11623,64.77463 -1.66518,20.50652 -6.97622,32.01205 -20.86739,45.20596 -16.34871,15.5281 -34.55466,20.85125 -71.32144,20.85334 -7.8821,4.6e-4 -15.68954,0.27251 -17.34986,0.60459 -4.02104,0.8042 -10.50565,6.48063 -13.14344,11.50535 -2.06177,3.92744 -2.1532,5.47573 -2.81501,47.66501 -0.37621,23.98314 -0.72493,48.78696 -0.77493,55.11958 l -0.0909,11.51387 h -11.7896 c -8.56103,0 -11.90121,-0.33543 -12.19717,-1.22488 z"
       id="path110" />
    <path
       style="fill:#000000;stroke-width:0.346448"
       d="m 485.96094,769.58898 c -1.71565,-0.2078 -1.90897,-0.32008 -2.18199,-1.26734 -0.16476,-0.57164 -0.44549,-17.25313 -0.62385,-37.06997 -0.17836,-19.81684 -0.47213,-37.04563 -0.65282,-38.2862 -0.7575,-5.20091 -3.68646,-10.64596 -7.77854,-14.46063 -2.58009,-2.40519 -7.80779,-5.19056 -11.47821,-6.11572 -3.34134,-0.8422 -10.26334,-1.24532 -21.61671,-1.2589 -13.55561,-0.0162 -32.76057,-0.54172 -37.45271,-1.02483 -8.72619,-0.89847 -14.0123,-2.25433 -19.57433,-5.02072 -9.91899,-4.93341 -18.18168,-13.0491 -22.14912,-21.75508 -1.54659,-3.39377 -3.39535,-9.21272 -4.4975,-14.15582 -1.26498,-5.67339 -1.57539,-14.63072 -1.57106,-45.33584 0.003,-24.6785 0.19304,-29.80748 1.13657,-30.751 1.0407,-1.0407 7.049,-1.20227 36.60844,-0.98442 39.09554,0.28812 44.95659,0.61354 51.53836,2.86148 12.12669,4.14176 25.38085,11.96584 37.67206,22.23826 l 3.46449,2.89545 0.085,-1.16131 c 2.02058,-27.59537 17.72918,-55.05907 37.74519,-65.99078 6.46709,-3.53199 13.01052,-5.88919 20.54631,-7.40158 12.08814,-2.42603 19.774,-3.0911 38.62898,-3.34268 12.6853,-0.16925 55.83371,0.3196 56.12767,0.6359 0.0537,0.0578 0.30005,2.13174 0.54748,4.60884 0.33413,3.34506 0.44178,12.30324 0.41841,34.81805 -0.0405,39.04384 -0.2032,41.41888 -3.53849,51.66598 -2.93417,9.01472 -8.64438,18.523 -15.23096,25.36162 -6.90987,7.17427 -17.9075,14.20862 -28.21712,18.04833 -4.60455,1.71491 -11.29379,3.61398 -14.06772,3.99381 -3.72004,0.50938 -14.01208,1.05446 -32.76278,1.73516 -15.90413,0.57737 -17.89897,0.71411 -19.97272,1.36905 -4.66559,1.4735 -8.05816,4.56754 -10.3289,9.42 -2.06902,4.42139 -1.98626,2.35439 -2.44683,61.11051 -0.233,29.72527 -0.52115,54.15145 -0.64034,54.28042 -0.29434,0.3185 -25.3754,0.62592 -27.73629,0.33996 z"
       id="path112" />
  </g>
</svg>
